<?xml version="1.0" encoding="utf-8"?>
<!-- Generator: Adobe Illustrator 28.1.0, SVG Export Plug-In . SVG Version: 6.00 Build 0)  -->
<svg version="1.1" id="Laag_1" xmlns="http://www.w3.org/2000/svg" xmlns:xlink="http://www.w3.org/1999/xlink" x="0px" y="0px"
	 viewBox="0 0 614 180.5" style="enable-background:new 0 0 614 180.5;" xml:space="preserve">
<g>
	<g>
		<path d="M70.9,87.4c-1.2,0-2.3-0.4-3.1-1.3c-0.8-0.8-1.3-1.9-1.3-3.1V26.1c0-1.3,0.4-2.3,1.3-3.2c0.8-0.8,1.9-1.2,3.1-1.2h16.8
			c4.2,0,7.9,0.9,11.2,2.8c3.2,1.8,5.8,4.4,7.6,7.7c1.8,3.3,2.7,7,2.7,11.3c0,4.1-0.9,7.7-2.7,10.9c-1.8,3.2-4.4,5.7-7.6,7.5
			c-3.2,1.8-7,2.7-11.2,2.7H75.3V83c0,1.2-0.4,2.3-1.2,3.1C73.3,87,72.2,87.4,70.9,87.4z M75.3,56.6h12.4c2.6,0,4.8-0.6,6.8-1.7
			c2-1.1,3.5-2.7,4.6-4.6c1.1-2,1.7-4.2,1.7-6.7c0-2.7-0.6-5.1-1.7-7.1c-1.1-2-2.7-3.7-4.6-4.8c-2-1.2-4.2-1.8-6.8-1.8H75.3V56.6z"
			/>
		<path d="M139.6,87.7c-4.6,0-8.8-1-12.4-3c-3.6-2-6.4-4.7-8.5-8.2c-2-3.5-3.1-7.5-3.1-12.1c0-4.6,1-8.6,2.9-12.1
			c1.9-3.5,4.6-6.2,8-8.2c3.4-2,7.3-3,11.8-3c4.4,0,8.1,1,11.3,2.9c3.1,1.9,5.5,4.6,7.2,8c1.7,3.4,2.5,7.3,2.5,11.7
			c0,1.1-0.4,1.9-1.1,2.6c-0.7,0.7-1.7,1-2.8,1h-33.9v-6.7h33.6l-3.4,2.4c-0.1-2.8-0.6-5.3-1.7-7.5c-1.1-2.2-2.6-4-4.5-5.2
			c-2-1.3-4.3-1.9-7.1-1.9c-3.2,0-5.9,0.7-8.2,2.1c-2.3,1.4-4,3.3-5.2,5.8c-1.2,2.4-1.8,5.2-1.8,8.3c0,3.1,0.7,5.8,2.1,8.2
			c1.4,2.4,3.3,4.3,5.8,5.7c2.5,1.4,5.3,2.1,8.5,2.1c1.7,0,3.5-0.3,5.3-1c1.8-0.6,3.3-1.4,4.4-2.2c0.8-0.6,1.7-0.9,2.7-1
			c1,0,1.8,0.3,2.6,0.9c1,0.8,1.5,1.8,1.5,2.8c0.1,1-0.4,1.9-1.3,2.6c-1.9,1.5-4.3,2.7-7.1,3.7C144.9,87.2,142.2,87.7,139.6,87.7z"
			/>
		<path d="M189.4,87.7c-4.1,0-7.8-1-11-3.1c-3.2-2-5.8-4.8-7.7-8.3c-1.9-3.5-2.8-7.5-2.8-11.9c0-4.4,1-8.4,3.1-11.9
			c2-3.5,4.8-6.3,8.3-8.4c3.5-2,7.4-3.1,11.8-3.1c4.4,0,8.3,1,11.8,3.1c3.5,2,6.2,4.8,8.3,8.4c2,3.5,3.1,7.5,3.1,11.9h-3.3
			c0,4.4-0.9,8.4-2.8,11.9c-1.9,3.5-4.4,6.3-7.7,8.3C197.1,86.7,193.5,87.7,189.4,87.7z M191,80.2c2.9,0,5.4-0.7,7.6-2.1
			c2.2-1.4,4-3.2,5.3-5.6c1.3-2.4,1.9-5.1,1.9-8c0-3-0.6-5.7-1.9-8.1c-1.3-2.4-3.1-4.3-5.3-5.6c-2.2-1.4-4.8-2.1-7.6-2.1
			c-2.8,0-5.3,0.7-7.6,2.1c-2.3,1.4-4.1,3.2-5.4,5.6c-1.3,2.4-2,5.1-2,8.1c0,3,0.7,5.6,2,8c1.3,2.4,3.1,4.3,5.4,5.6
			C185.7,79.5,188.2,80.2,191,80.2z M209.9,87.5c-1.2,0-2.3-0.4-3.1-1.2c-0.8-0.8-1.2-1.8-1.2-3.1V70.3l1.6-8.9l7,3v18.7
			c0,1.2-0.4,2.3-1.2,3.1C212.1,87.1,211.1,87.5,209.9,87.5z"/>
		<path d="M231,87.4c-1.2,0-2.2-0.4-3-1.1c-0.8-0.8-1.1-1.8-1.1-3V25.9c0-1.2,0.4-2.2,1.1-3c0.8-0.8,1.7-1.1,3-1.1
			c1.2,0,2.2,0.4,3,1.1c0.8,0.8,1.1,1.8,1.1,3v57.4c0,1.2-0.4,2.2-1.1,3C233.3,87,232.3,87.4,231,87.4z M235,70.6l-5.2-5.7l25.8-23
			c0.8-0.8,1.8-1.1,2.8-1.1c1,0.1,1.9,0.5,2.6,1.3c0.8,0.8,1.1,1.8,1.1,2.8c-0.1,1-0.5,1.9-1.3,2.7L235,70.6z M261,87
			c-0.9,0.7-1.9,1-3,1c-1.1-0.1-2-0.6-2.7-1.5l-17.1-21.1l5.9-5.5l17.5,21.5c0.7,0.9,1,1.9,1,2.9C262.5,85.3,262,86.2,261,87z"/>
	</g>
</g>
<g>
	<g>
	</g>
</g>
</svg>
