<?xml version="1.0" encoding="utf-8"?>
<!-- Generator: Adobe Illustrator 28.1.0, SVG Export Plug-In . SVG Version: 6.00 Build 0)  -->
<svg version="1.1" id="Laag_1" xmlns="http://www.w3.org/2000/svg" xmlns:xlink="http://www.w3.org/1999/xlink" x="0px" y="0px"
	 viewBox="0 0 3686 2027" style="enable-background:new 0 0 3686 2027;" xml:space="preserve">
<style type="text/css">
	.st0{fill:#FFFFFF;}
	.st1{fill-rule:evenodd;clip-rule:evenodd;fill:#FFFFFF;}
</style>
<g id="g8" transform="matrix(1.3333333,0,0,-1.3333333,-1017.5957,118.2813)">
	<g id="g12424" transform="matrix(77.966227,0,0,-77.966227,-8440.0466,7638.8217)">
		<path id="path1072" class="st0" d="M135.6,115.9c-4.2,0-7.7-2.8-8.9-6.5c0,0,0,0,0,0c0,0,0,0,0,0c1.2,3.4,4.7,5.9,8.8,5.9
			c4.1,0,7.6-2.5,8.8-5.9c0,0,0,0,0,0c0,0,0,0,0,0C143.3,113.1,139.7,115.9,135.6,115.9"/>
		<path id="path1102" class="st0" d="M131.4,101.7C131.4,101.7,131.4,101.7,131.4,101.7C131.3,101.6,131.3,101.7,131.4,101.7
			c-0.1,0-0.1,0-0.1,0c0,0,0,0-0.1,0c0,0-0.1-0.1-0.1-0.1c0,0,0,0,0,0c-0.1,0-0.2-0.1-0.3,0c0,0,0,0,0,0c0,0.1-0.1,0.1-0.2,0.1
			c0,0-0.1,0-0.1,0c0,0,0,0.1-0.1,0.1c0,0,0,0-0.1,0c-0.1,0.1-0.1,0.1-0.1,0.2c0,0.1,0,0.1-0.1,0.1c0,0,0,0-0.1,0.1
			c-0.1,0.1-0.1,0.2-0.2,0.3c0,0,0,0.1-0.1,0.2c0,0.1,0,0.1,0,0.2c0,0.1,0.1,0.2,0.1,0.2c-0.2,0-0.6,0-0.9,0c0,0-0.1-0.2-0.1-0.2
			c0,0-0.1-0.1,0-0.2c0,0,0.1-0.1,0.1-0.2c0-0.2-0.1-0.4-0.1-0.5c0.1-0.1,0-0.3,0-0.4c0,0,0,0,0,0c0.1-0.1,0.1-0.3,0.1-0.4
			c-0.2,0.3-0.1,0.6-0.2,0.9c0,0,0,0.1,0,0.1c0,0,0,0.2-0.1,0.2c0-0.1-0.1-0.1-0.1-0.2c0,0,0,0,0-0.1c0.1-0.1,0.1-0.2,0-0.3
			c0,0,0-0.1,0-0.1c0.1,0,0.1-0.1,0.1-0.2c0-0.1,0-0.2,0-0.2c0-0.1,0.1-0.2,0.1-0.3c0-0.1,0-0.1,0-0.2c0,0,0,0,0,0
			c0.1-0.1,0.1-0.3,0.2-0.4c0.1-0.1,0.1-0.2,0.2-0.3c-0.9,0.8-1.7,1.7-2.2,2.7c0,0,0,0,0,0c0,0,0,0,0,0l0,0c0.7-1.6,1.9-3,3.4-4
			c1.5-1,3.3-1.5,5.1-1.5s3.6,0.5,5.1,1.5c1.5,1,2.6,2.4,3.4,4l0,0c0,0,0,0,0,0c0,0,0,0,0,0c-0.1-0.2-0.2-0.4-0.4-0.7
			c-0.1-0.1-0.1-0.1-0.2-0.2c0-0.1-0.1-0.1-0.2-0.1c-0.1-0.1-0.1-0.1-0.2-0.2c-0.1-0.1-0.2-0.2-0.3-0.3c-0.1-0.1-0.3-0.2-0.4-0.3
			c0,0,0,0,0,0c0,0.1,0.1,0.2,0.2,0.3c0.1,0.1,0.1,0.2,0.3,0.3c0.1,0.1,0.2,0.2,0.3,0.3l0,0l0,0c0,0-0.1,0-0.1-0.1l0,0
			c0,0,0,0.1,0,0.1c0.1,0,0.1,0.1,0.1,0.2c0,0,0,0,0,0c0,0,0,0,0,0v0c0,0,0,0,0,0c0,0,0,0.1,0,0.1c0,0,0,0,0,0.1
			c-0.1,0-0.1-0.1-0.2-0.1c0,0,0,0,0-0.1l0,0l0,0c0,0,0.1,0,0.2,0c-0.1-0.2-0.3-0.3-0.5-0.5c-0.1-0.1-0.2-0.1-0.2-0.2
			c-0.1-0.1-0.1-0.1-0.2-0.2c0,0,0,0,0,0.1c0,0,0,0.1,0,0.1c-0.1,0-0.2-0.1-0.2,0c0,0,0,0.1,0,0.1c0.1,0.1,0,0.1,0,0.2
			c0,0,0,0.1,0,0.2c0,0,0,0.1,0,0.1c0.1,0.1,0,0.2,0.1,0.2c0,0.1,0,0.2-0.1,0.2c-0.2,0-0.3,0.2-0.3,0.2c-0.1-0.1-0.1-0.1-0.1-0.1
			c0,0-0.1-0.1-0.2,0c0,0-0.1,0-0.1,0c0,0,0-0.1,0-0.1c0,0,0-0.1-0.1-0.1c0,0-0.1,0-0.1-0.1c0-0.2-0.1-0.4-0.2-0.5
			c0,0-0.1,0-0.1-0.1c0-0.1,0,0,0.1,0c0,0,0-0.1,0.1-0.1c0.2,0,0.4,0,0.6,0c-0.1-0.2-0.1-0.3-0.2-0.3c0,0-0.2-0.1-0.3-0.2
			c0,0-0.1,0-0.1,0c-0.1,0-0.1,0-0.2-0.1c0.1-0.1,0.2,0,0.3-0.1c0,0-0.1-0.1-0.1-0.1c0,0,0.1,0,0.2,0c0,0,0-0.1,0.1-0.1
			c0,0-0.1-0.1,0-0.1c0.1-0.1,0.1-0.1,0.1-0.2c0,0,0,0,0.1,0.1c0,0,0.1-0.1-0.1-0.1c0,0,0,0,0,0c0,0,0,0,0,0c0,0,0.1,0,0.1,0
			c-0.1-0.1-0.2-0.2-0.3-0.2c-0.1,0-0.1-0.1-0.1-0.2c0.1,0,0.1,0.1,0.2,0.1c0,0,0,0.1,0.1,0.1c0,0,0.1,0,0.1,0c0,0-0.1-0.1-0.1-0.1
			c0-0.1-0.2-0.2-0.2-0.2c-0.1,0-0.2-0.1-0.2-0.1c0,0,0,0,0,0c0,0.1-0.2,0.1-0.2,0c0,0,0,0-0.1,0c-0.1-0.1-0.1-0.1-0.2-0.1
			c0,0,0,0,0-0.1c0-0.1-0.1-0.1-0.1-0.1c0,0,0.1,0,0.1-0.1c-0.5-0.3-1.1-0.5-1.6-0.7c-0.1,0-0.1,0-0.2,0.1c-0.1,0.1-0.2,0.1-0.4,0
			c-0.1,0-0.1,0-0.1,0.1c0,0-0.1,0-0.1,0.1l0,0.1c0,0.1-0.1,0.1-0.1,0.2c-0.1,0-0.2-0.1-0.3-0.1c-0.1,0-0.2-0.1-0.3-0.2
			c-0.1-0.1-0.2-0.2-0.3-0.3c0,0,0-0.1,0-0.1c0,0,0,0,0.1-0.1c0,0,0,0,0.1,0c0,0,0.1-0.1,0.1-0.1c-0.3,0-0.6-0.1-0.9-0.1
			c0.1,0,0.1,0.1,0.2,0.1c0,0-0.1,0-0.1,0l0,0c0.2,0.1,0.5,0.2,0.5,0.2c0,0-0.1,0-0.2,0.1c0,0-0.1-0.1-0.3-0.1c0,0,0,0,0,0
			c0,0,0,0.1,0,0.1c0.1,0,0.1,0.1,0.2,0.1c0,0-0.1,0-0.1,0.1c-0.1-0.1-0.2-0.1-0.3-0.2l0,0c0.1,0,0.1,0.1,0.2,0.1c0,0,0,0,0,0
			c-0.2,0-0.3-0.1-0.5-0.1c0,0-0.1-0.1-0.1-0.1c0,0-0.1-0.1-0.2-0.1c-0.1,0-0.2,0-0.2,0s-0.1,0-0.1,0s0-0.1,0.1-0.1c0,0,0.2,0,0.2,0
			c0.1,0,0.2,0,0.2,0c0,0,0,0,0-0.1c0.1,0,0.1,0,0.2,0c0,0,0-0.1-0.1-0.1c0,0-0.1,0-0.1,0c0,0,0,0,0,0c0,0-0.1,0-0.1,0
			c0,0,0,0-0.1-0.1c-0.3,0-0.6,0-0.9,0c0,0.1,0.2,0.1,0.2,0.2c-0.1,0-0.2,0-0.3-0.1c-0.1,0-0.1,0-0.2,0c0,0-0.1-0.1-0.1-0.1
			c0,0,0.1-0.1,0.2-0.1c-0.2,0-0.4,0-0.6,0.1c-0.6,0.1-0.7,0.3-0.8,0.4c0,0,0.1,0.1,0.1,0.1c0,0,0,0.1-0.1,0.1
			c0.1,0,0.3,0.1,0.4,0.1c0.1,0.2,0.3,0.2,0.5,0.2c0,0.1,0,0.1-0.1,0.2c0,0,0,0,0,0c0,0,0,0.1,0.1,0.1c0,0,0,0,0,0
			c0.3,0,0.2-0.1,0.3-0.3c0.1,0,0.4,0,0.5-0.2c0-0.1-0.1-0.2-0.1-0.2c0,0,0,0,0,0c0,0,0.2-0.1,0.2-0.1c0,0,0,0,0-0.1
			c0,0,0.1,0,0.1,0c0,0,0,0,0,0c0,0,0,0,0,0c0,0,0,0,0,0c0.1,0,0.3,0,0.4,0.1c0.1,0,0.1,0,0.2,0.1c0.1,0.1,0.2,0.1,0.2,0.1
			c-0.1,0.1,0,0.2,0.1,0.2c0.2,0.1,0.4,0,0.5-0.1c0.1,0.1,0.2,0.2,0.3,0.3c0,0,0,0.1,0.1,0.2c0.1,0.1,0.3,0.2,0.4,0.2
			c0,0,0,0.1,0.2,0.2c0,0,0,0.1,0,0.1c0,0-0.1,0-0.1,0.1c-0.1,0-0.1,0-0.2,0c-0.1,0-0.1,0-0.2,0c-0.1,0-0.2,0-0.4,0
			c-0.2-0.1-0.4-0.1-0.6-0.1c-0.1,0-0.2,0-0.2,0c0,0-0.1,0-0.1,0c-0.1,0-0.4,0.1-0.4,0.1c0.2-0.1,0.5-0.1,0.7-0.1c0,0,0.1,0,0.2,0.1
			c0,0,0,0,0,0.1c0,0,0,0-0.1,0c-0.1,0-0.1,0-0.2,0c0,0,0,0,0,0c0.1,0,0.1,0,0.2,0c0,0-0.1,0-0.1,0.1c0,0.1,0.1,0.2,0.3,0.2
			c0,0,0.1,0,0.2,0c0.1,0,0.1-0.1,0.2-0.1c0,0,0,0,0,0c0,0,0,0,0,0.1c0,0,0,0,0.1,0.1c0,0,0,0,0,0c-0.1,0-0.1,0-0.2,0c0,0,0,0,0,0
			c-0.2,0-0.4,0-0.6,0c0,0-0.1,0-0.1,0c0,0,0,0,0-0.1c0,0,0,0,0.1,0c0.1,0,0.1,0,0.2-0.1c0,0-0.1,0-0.3,0c-0.1,0-0.2,0-0.4,0
			c-0.1,0-0.3,0-0.4,0.1c0,0,0,0,0,0.1c0,0,0.1,0,0.1,0c-0.3,0-0.4-0.1-0.5-0.1c0,0,0,0,0,0c0,0,0,0,0.1,0c0,0,0.1,0,0.1,0
			c0,0,0,0,0,0c0,0-0.1,0-0.1,0c0,0-0.1,0-0.1,0c0,0-0.1,0-0.1,0.1c0,0-0.1,0.1-0.1,0.1c0,0,0-0.1-0.1-0.1c0,0,0,0,0,0
			c0.1,0.2-0.1,0.2-0.2,0.2c0,0,0,0,0,0c0,0,0,0,0-0.1c0,0,0-0.1,0-0.1c0,0,0,0,0,0c0,0.1-0.1,0.1,0,0.2c0,0.1,0,0.2-0.1,0.2
			c0,0-0.1,0-0.1,0.1c0,0,0,0-0.1,0c-0.1,0-0.2,0-0.2,0.1c-0.2,0-0.3,0.1-0.4,0.2c-0.1,0-0.2,0.1-0.2,0.1c-0.1,0.2,0,0.4-0.1,0.6
			c0,0.1-0.1,0.2-0.1,0.2c0,0,0,0,0,0c0,0-0.1,0-0.1,0c0-0.1,0-0.2-0.1-0.2c0-0.1,0-0.2,0-0.3c0,0,0-0.1,0-0.1c0,0,0,0,0,0
			c0-0.1-0.1-0.1-0.1-0.1c0,0-0.1,0-0.1,0c0,0-0.1-0.1-0.1-0.1c-0.1,0-0.1,0-0.2,0c0,0-0.2,0-0.2,0
			C131.4,101.6,131.5,101.6,131.4,101.7C131.4,101.6,131.4,101.6,131.4,101.7C131.4,101.6,131.4,101.7,131.4,101.7
			C131.4,101.7,131.4,101.7,131.4,101.7L131.4,101.7z M141.6,100.1c0.1-0.1-0.1-0.2-0.1-0.2c0,0-0.1,0-0.1,0c0,0,0,0,0,0.1
			c0,0,0,0-0.1,0c0,0,0,0,0,0.1c0,0-0.1,0-0.1,0l0,0c0,0,0.1,0,0.2,0.1C141.4,100,141.4,100,141.6,100.1
			C141.5,100.1,141.6,100.1,141.6,100.1"/>
		<path id="path1148" class="st1" d="M135.5,98c0,0.1-0.2,0-0.2,0C135.4,97.9,135.5,98,135.5,98"/>
		<path id="path1154" class="st0" d="M137.2,100c-0.2,0-0.2,0.1-0.2,0.1c0.1,0,0.1,0,0.2,0l0,0c0,0,0,0,0,0c0.1,0,0.2,0.1,0.3,0.1
			c0,0-0.1,0.1-0.1,0.1c0.1,0,0.1,0,0.1,0c0,0-0.1,0-0.1,0.1l0,0c0,0,0.1,0,0.1,0c0,0,0,0-0.1,0.1c0,0,0.1,0,0.1,0c0,0,0,0,0,0
			c-0.1,0.1-0.1,0.1-0.1,0.1c0,0,0,0,0,0c0,0,0,0,0,0c0,0,0,0-0.1,0c0,0,0.1,0,0-0.1c-0.1,0-0.2,0-0.3,0c0,0,0,0,0,0
			c0.1,0,0.1,0,0.1,0c-0.1,0-0.2-0.1-0.3-0.1c-0.1,0-0.3,0-0.3-0.1c0-0.1,0.1-0.2,0.3-0.3C137,100,137.1,99.9,137.2,100
			C137.2,99.9,137.2,100,137.2,100"/>
		<path id="path1200" class="st1" d="M142.3,101.4c0,0.1,0.1,0.2,0.1,0.2C142.3,101.6,142.3,101.5,142.3,101.4
			C142.3,101.5,142.3,101.5,142.3,101.4"/>
		<path id="path1206" class="st0" d="M135.9,100.2C135.9,100.2,135.9,100.1,135.9,100.2c0.1,0.1,0.2,0,0.3,0.1c0,0-0.1,0-0.1,0
			C136,100.2,136,100.2,135.9,100.2"/>
		<path id="path1236" class="st0" d="M136,99.9c0.1,0,0.2,0,0.3,0.1l0,0C136.2,100,136.1,99.9,136,99.9"/>
		<path id="path1266" class="st0" d="M139.7,100.4c0,0,0-0.1,0-0.1c0,0,0,0-0.1-0.1c0,0,0,0,0-0.1c0,0,0.1,0,0.1-0.1
			c0-0.1,0-0.1,0-0.1c0.1-0.1,0.1-0.1,0.2-0.1c0,0,0.1,0.1,0.1,0.1c0,0,0,0,0,0c0,0,0.1,0.1,0.1,0.2c-0.1,0.1-0.2,0.2-0.3,0.2
			C139.8,100.5,139.7,100.5,139.7,100.4C139.7,100.5,139.7,100.5,139.7,100.4"/>
		<path id="path1296" class="st0" d="M140,100C140,99.9,140,99.9,140,100C139.9,99.9,139.9,99.9,140,100c-0.1-0.1-0.1-0.1-0.1-0.1
			L140,100c-0.1-0.1-0.1-0.2-0.1-0.2c0,0-0.1,0-0.1-0.1c0,0,0.1-0.1,0.1-0.1c0,0,0.1,0,0.2,0c-0.1,0.1,0,0.1,0.1,0.1
			c0.1,0,0.1,0,0.1,0.1c0,0,0,0.1,0,0.1c0.2,0.1,0.4,0.2,0.5,0.4c0.1-0.1,0.2,0,0.2,0.2c0,0,0,0,0.1,0c0,0,0,0,0,0
			c0,0.1-0.3,0-0.4,0.1c-0.1,0,0-0.1-0.2,0c0.1-0.2,0.1-0.1,0.2-0.2c-0.1,0-0.1,0-0.2,0c0.1,0,0.1-0.1,0-0.1c0,0,0,0,0-0.1h0.1
			c0,0,0,0,0,0c0-0.1-0.1-0.1-0.1-0.2C140.2,100,140,100.1,140,100C140,99.9,140,99.9,140,100L140,100L140,100"/>
		<path id="path1326" class="st0" d="M142.5,102c0-0.1-0.1-0.2-0.1-0.3c0,0,0,0,0-0.1C142.5,101.8,142.5,101.9,142.5,102
			C142.6,102,142.5,101.9,142.5,102C142.5,102,142.5,102,142.5,102"/>
		<path id="path1356" class="st0" d="M135.1,112.3c0,0-0.1,0-0.1,0c0,0,0,0-0.1,0.1c0,0,0.1,0,0.1,0c-0.1,0.1-0.3,0.2-0.4,0.3
			c0,0,0,0,0,0c-0.1,0-0.2,0-0.2-0.1c0,0-0.1,0-0.1,0c0,0,0-0.1-0.1-0.1c0,0,0,0,0,0c0,0,0,0,0,0c0,0,0.1,0.1,0.1,0.1c0,0,0,0,0,0.1
			c0,0,0,0.1,0,0.1c0,0,0,0,0,0c0,0.1-0.1,0.2-0.2,0.2c-0.1,0-0.2,0-0.3,0c-0.1,0-0.2,0-0.1,0.1c0,0,0,0.1,0,0.1
			c-0.1,0-0.2,0-0.2-0.1c0,0.1,0,0.1,0.1,0.2c0,0,0,0,0.1,0.1c-0.1,0-0.2,0-0.2,0.1c0,0,0,0.1,0,0.1c0,0-0.1,0-0.2,0
			c0,0.1,0.1,0.1,0.2,0.1c0,0,0,0.1,0,0.1c0,0-0.1,0.1-0.1,0.1c0,0,0,0.1,0,0.1c0,0-0.1,0-0.1,0c0,0.1,0.1,0.1,0.1,0.2
			c0,0-0.1,0-0.1,0l0.1,0.1c0.1,0,0,0.1,0.1,0.1c0.1,0.1,0.1,0.1,0.1,0.1c0,0,0,0.1-0.2,0c-0.2-0.1-0.3-0.1-0.5-0.3
			c0,0-0.1-0.1-0.2-0.4c0,0,0,0,0-0.1c0,0,0,0,0.1,0c0,0,0-0.1,0-0.1c0,0-0.1,0-0.1,0c0-0.1,0-0.1,0.1-0.1c0,0,0,0,0-0.2
			c0,0,0,0,0,0c0,0,0,0.1,0.1,0.1c0-0.2,0-0.2,0-0.3c0,0,0,0,0,0v0.2c-0.1,0-0.1,0-0.1-0.1c0,0,0,0,0-0.1c0,0,0-0.1,0-0.1
			c0-0.1,0-0.2,0-0.3c-0.1-0.1,0-0.1,0-0.1c0.1-0.2,0.2-0.4,0.1-0.7c0-0.1-0.1-0.1,0-0.2c0,0,0,0,0,0c0-0.1,0-0.2,0-0.3
			c0-0.1,0-0.1,0-0.2c0-0.1,0-0.2,0-0.4c0-0.1,0-0.1,0-0.2c0-0.1,0.1-0.1,0.1-0.2c0-0.1,0-0.3,0-0.4c0,0,0-0.1,0-0.1
			c-0.2-0.2-0.3-0.4-0.5-0.5c-0.2-0.1-0.2-0.2-0.3-0.4c0,0,0-0.1,0-0.1c1.3,0,2.6-0.1,3.9-0.1c1,0,2.1,0,3.1,0c0,0.1,0,0.3,0,0.3
			c0,0.2,0,0.2-0.1,0.4c-0.1,0.1-0.2,0.2-0.3,0.3c-0.2,0.1-0.3,0.2-0.5,0.3c-0.1,0-0.1,0.1-0.2,0.1c-0.2,0.1-0.2,0.3-0.3,0.5
			c-0.1,0.2-0.2,0.3-0.3,0.5c0,0.1-0.1,0.1-0.2,0.2c0,0.1-0.2,0.2-0.3,0.2c-0.1,0-0.2,0-0.3,0c-0.1,0-0.2,0-0.2,0.1
			c-0.2,0-0.3,0-0.4,0.1c-0.1,0-0.1,0.1-0.1,0.2c0,0.1,0,0.1-0.1,0.2C135.3,112.1,135.2,112.2,135.1,112.3
			C135.1,112.4,135.1,112.4,135.1,112.3C135.1,112.4,135,112.4,135.1,112.3L135.1,112.3z M135.1,112.4L135.1,112.4"/>
		<path id="path1386" class="st0" d="M149,108.6c-0.1-0.3-0.2-0.6-0.3-0.8c-0.6,0-1.2-0.1-1.8-0.1l-0.3,0.8c-0.4,0-0.7,0-1.1-0.1
			c0.6-1.4,1.2-2.8,1.9-4.2c0.2,0,0.3,0,0.5,0c0.2,0,0.3,0,0.5,0c0.6,1.5,1.2,3,1.9,4.5C149.8,108.6,149.4,108.6,149,108.6
			L149,108.6z M147.3,106.7c0.4,0,0.7,0.1,1.1,0.1c-0.2-0.5-0.4-0.9-0.5-1.4C147.6,105.8,147.4,106.3,147.3,106.7"/>
		<path id="path1416" class="st0" d="M130.6,108.1c-0.6-1.4-1.2-2.9-1.8-4.3c0.4,0,0.8,0,1.1,0c0.3,0.9,0.7,1.8,1,2.7
			c0.3-0.9,0.7-1.8,1-2.8c0.4,0,0.8,0,1.1,0c-0.6,1.5-1.2,2.9-1.8,4.4c-0.1,0-0.3,0-0.4,0C130.9,108.1,130.8,108.1,130.6,108.1"/>
		<path id="path1446" class="st0" d="M119.2,107.1c0,0.6,0.2,0.9,0.8,0.9c0.5-0.1,0.8-0.4,0.8-1v-2.6c0.3,0,0.7-0.1,1-0.1v2.6
			c0,1.2-0.6,1.9-1.8,2c-1.2,0.1-1.8-0.5-1.8-1.7v-2.6c0.3,0,0.7-0.1,1-0.1"/>
		<path id="path1476" class="st0" d="M143.8,105.5c0.7,0.3,1.6,0.6,1.6,1.5c0,0.9-0.7,1.4-1.8,1.3c-0.7,0-1.4-0.4-1.6-0.6
			c0,0,0,0,0,0v-1c0,0,0,0,0.1,0c0.6,0.4,1.1,0.6,1.5,0.7c0.5,0.1,0.7-0.1,0.7-0.4c0-0.1-0.1-0.2-0.3-0.4c-0.1-0.1-0.3-0.1-0.4-0.2
			c-0.7-0.3-1.6-0.6-1.6-1.6c0-0.9,0.8-1.2,1.6-1.2c0.6,0,1.3,0.3,1.6,0.5c0,0,0,0,0,0v1c0,0,0,0-0.1,0c-0.2-0.1-0.9-0.6-1.6-0.6
			c-0.3,0-0.5,0.1-0.5,0.3c0,0.1,0.1,0.2,0.3,0.4C143.5,105.3,143.6,105.4,143.8,105.5"/>
		<path id="path1506" class="st0" d="M140.5,106.4c0.3,0.6,0.7,1.1,1,1.7c-0.4,0-0.8,0-1.2,0c-0.3-0.5-0.6-1.1-0.9-1.6
			c-0.2,0-0.5,0-0.7,0v1.6c-0.3,0-0.7,0-1,0v-4.4c0.8,0,1.6,0,2.3,0c0.8,0,1.3,0.6,1.3,1.4C141.4,105.9,140.9,106.3,140.5,106.4
			L140.5,106.4z M138.8,105.6c0.3,0,0.6,0,1,0c0.5,0,0.6-0.3,0.6-0.5c0-0.2-0.1-0.5-0.6-0.5c-0.3,0-0.6,0-1,0"/>
		<path id="path1536" class="st0" d="M127.4,108.2c0-1.5,0-2.9,0-4.4c0.3,0,0.7,0,1-0.1v4.4C128.1,108.2,127.7,108.2,127.4,108.2"/>
		<path id="path1566" class="st0" d="M134.6,106.3v0.8c0.8,0,1.6,0,2.3,0v0.9c-1.1,0-2.2,0-3.3,0c0-1.5,0-2.9,0-4.4
			c1.1,0,2.2,0,3.3,0v0.9c-0.8,0-1.5,0-2.3,0v0.8c0.5,0,1,0,1.6,0v0.9C135.7,106.3,135.2,106.3,134.6,106.3"/>
		<path id="path1596" class="st0" d="M125.5,104c0.3,0,0.7,0,1-0.1v4.4c-0.3,0-0.6,0-0.8,0.1l0,0c-0.7-0.8-1.3-1.7-2-2.5v2.6
			c-0.3,0-0.7,0.1-1,0.1v-4.4c0.3,0,0.7-0.1,1-0.1l0,0c0.6,0.8,1.2,1.5,1.8,2.3"/>
		<path id="path1626" class="st0" d="M150.6,104.3c0.3,0,0.7,0.1,1,0.1v3.4c0.6,0.1,1.2,0.1,1.8,0.2v0.9c-0.9-0.1-1.8-0.2-2.8-0.3
			C150.6,107.2,150.6,105.8,150.6,104.3"/>
	</g>
</g>
</svg>
