<?xml version="1.0" encoding="utf-8"?>
<!-- Generator: Adobe Illustrator 28.1.0, SVG Export Plug-In . SVG Version: 6.00 Build 0)  -->
<svg version="1.1" id="Laag_1" xmlns="http://www.w3.org/2000/svg" xmlns:xlink="http://www.w3.org/1999/xlink" x="0px" y="0px"
	 viewBox="0 0 3686 2027" style="enable-background:new 0 0 3686 2027;" xml:space="preserve">
<style type="text/css">
	.st0{fill:#FFFFFF;}
</style>
<g id="g151">
	<path id="path2" class="st0" d="M666.8,1433.2l34.2-51.6l59.3,16.2l-38.7-47.1l33.2-50.9l-57.4,22.5l-39.9-47l3.4,61l-55.7,21
		l58.1,15.2L666.8,1433.2z M658.7,1205.8l43.3-44.6l55.3,27.2l-29-53.4l42.2-43.8l-60.5,11.2l-30.1-53.9l-8,60.6l-59.2,10.2
		l54.1,26.1L658.7,1205.8z M694.4,980.7l50.8-35.1l49.3,36.8l-18.6-58.1l50.3-34.7l-61.8-0.8l-19.2-58.5l-19.7,58.3l-59.9-1.4
		l48.2,35.6L694.4,980.7z M949.5,559.4l31.8,52.7l4.4-60.3l59.5-14.1l-56.6-23.6l4.1-61.2l-39.8,46.5l-55.2-23.9l31.2,51.3
		l-39.7,46.1L949.5,559.4z M1683.8,199l45.6-40.3l52.3,31.4l-24.7-56.8l45.6-41.2l-60.8,5.6l-23-55.2l-13.5,58.4l-60.5,6l52.8,31.8
		L1683.8,199z M812.2,1862.5l12.3-60.7l61-7.3l-53.4-29.1l11.5-59.5l-44.8,42.1l-54.4-28.5l26.3,55.2l-43.9,40.6l59.4-7.7
		L812.2,1862.5z M1102.1,402.7l21.3,57.8l16-58.7l60.9-2.1l-51.3-34l15.9-59.7l-47.9,37.8l-49.7-33.4l20.6,56.3l-47.4,37.6
		L1102.1,402.7z M1282.2,277.1l9.5,60.8l27.3-54.6l60.1,9.6l-44-43.3l27-55.4l-54.7,28.1l-42.1-42.3l9.9,58.9l-54,28.3L1282.2,277.1
		z M1480.6,249.7l36.8-48.4l57.5,20.8l-34.9-50.8l36.9-49.1l-58.8,16.8l-33.2-49.4l-1.8,59.9l-58.5,17l58.1,21.6L1480.6,249.7z
		 M703.7,1596.4l14.9,58.9l23.7-57.5l61.7,4.5l-47.1-38.7l22.8-56.3l-51.9,32.9l-48.1-38.6l15.1,59.4l-50.9,31.3L703.7,1596.4z
		 M772.5,767.6l56.6-25.1l41.1,45.9l-7-60.5l55.5-24.7L858.7,691l-7.7-61.2l-30.6,53.1L762,670.2l40.3,44.5L772.5,767.6z
		 M2537.1,395l15.8,58.7l22-57.4l61.4,1.6l-47.7-38.2l21.7-55.8l-50.3,33l-47.3-38.1l15.6,59.8l-51.8,33.6L2537.1,395z
		 M2633.2,529.1l59.3,13.9l4.1,60.8l32.2-52.5l60.2,13.7l-39.6-46.7l31.9-50.6l-55.4,22.7l-39.6-46.2l4.1,61.7L2633.2,529.1z
		 M2356.8,278.2l26.6,54.5l10.3-60.4l60.8-9.8l-54-28.6l10.4-58.8l-42.8,42.1l-54-28.3l26.6,55.8l-43.9,42.8L2356.8,278.2z
		 M2816.7,718.4l-7.3,60.1l41.9-45.2l56.2,24.9l-30.1-53.4l41.1-43.5l-58.8,11.9l-30-53.5l-7.7,61.4l-60.3,11.7L2816.7,718.4z
		 M2099.8,218.5l57.6-20.5l36.5,49l-1.6-61.9l58.1-20.9l-58.6-17.7l-1.1-59.9l-34.1,49.4l-58.2-17.6l36.9,49.8L2099.8,218.5z
		 M3025.1,1325.1l4.3-60.9l-40.4,47.4l-57.1-23.3l32.8,51.1l-39.1,46.9l59.6-15.3l33.6,51.6l3.9-61l58.1-14.3L3025.1,1325.1z
		 M2984.2,1585.4l59.9-2.8l-50.3-32.5l15.2-58.7l-48.4,38.7l-51.6-33.7l22.6,56.9l-47.7,38.1l61.7-3.6l23.2,57L2984.2,1585.4z
		 M2865.7,1791.7l11.6,60.7l26.7-55.1l59.3,8.5l-43.5-41.3l26.6-54.8l-55,28.6l-44.6-42.9l11.3,59.5l-53.5,28.7L2865.7,1791.7z
		 M1359.9,1408.6c-4.7-3.8-62.6,55-100.4,96.1c-13.4,14.2-22,27.7-27.2,34.1c0,0-16.7,27.5-25.5,39.1c-9,11.6-31.2,44.4-41.1,58.6
		c-3.4,4.7-12.2,25.4-29.4,46.9c-8.5,10.7-17.2,24.8-34,46.2c-22.3,28.7-39.2,52.3-35.4,55.4c2.2,1.5,35.1-38.2,70.3-81
		c14.7-17.9,30.6-36.2,44-53.6c6.6-8.4,21.7-22.6,26.6-29.8c8.7-12.8,18.1-22.6,21.8-25.6c19.6-16,30.7-17.2,37-26.3
		c3-4.5,41.8-63,56-86.8C1335.8,1459.6,1367.7,1415.7,1359.9,1408.6 M3004.7,1037.9l-30.5,53.8l-60.4-11.8l42,44.4l-29.2,52.9
		l55.4-26.3l42.7,44.2l-7.6-60.9l54.3-25l-59.2-11L3004.7,1037.9z M2856.3,878.7l49.6,35.2l-18.8,58.1l49.3-36.7l50.9,35.4
		l-19.5-58.3l48.5-35.1l-59.7,0.5l-19.4-57.9l-19.4,58.6L2856.3,878.7z M1892.7,188.7l52.6-31l45.1,40.4l-13.3-60l52.5-31.4
		l-60.8-6.4l-12.3-58.6l-24.1,54.9l-60.5-5.8l45.8,41.4L1892.7,188.7z M1900.6,1256.8c5.7,16.8,26.8,115.6,33,136.1
		c6.3,20.4,12.7,21.5,16.2,29.5c12.3,30.8,29.9,32,39,34.5c25.4,7.8,27.5,41.9,43.7,72.3c15.1,28.5,29.4,54.1,42.7,85.2
		c13.4,31.1,81.7,199.6,93.5,225.3c3.9,9.3,36.5,9.3,33,0c-8.2-18.5-26.9-65.1-38.6-111.5c-7.3-30.1,20.8-8.8,2.8-57.1
		c-8.3-22.1-24.1-44.2-33-53.1c-9.1-8.9-17.9-47.1-24.8-64.2c-7.3-16.7-3.6-17.5-18.7-57.7c-11.3-29.4,20.4-19.5,2.6-64.8
		c-11.5-29.5-70-136-76.8-146.9c-3.3-6-14.6-24.4-28.5-46.2c-13.1-20.7-24-42.8-30.2-52.5c-12.2-19.5-34.5-62.2-47.1-80
		c-12.5-17.9-28.1-57.1-34.5-50.5c-6.3,5.8,18.8,64.6,29.1,102.1c10.8,37.4,3,52.6-3.5,63.2
		C1894.5,1230.9,1894.5,1238,1900.6,1256.8 M2297.5,1561.8c17.2,28.6,21.8,22.9,28.9,23.2c16.2,0.4,52.5,39.4,59.7,50.1
		c6.9,10.7,65.3,68.9,80.3,83.2c6.6,6.2,52.8,81,58.7,75.6c6.2-5.4-17.7-41.6-21.4-49.7c-3.3-7.9-16.7-19.6-23.1-36.6
		c-6-16.7-33.5-58.6-42.5-71.9c-8.9-13.4-23.3-43-39.1-61.7c-14.6-16.4-3-20.9-18-35.4c-9.1-8.5-37.4-33.6-43.7-38.9
		c-6-5.5-29.1-26-42.4-37.5c-13.2-11.2-44.7-33.1-43.6-47.1c0.4-14.4-6.5-41.6-17.1-50.7c-7.7-6.6-30.2-42.9-56.1-64
		c-13-11-40.9-39.9-62.3-65c-20.1-23.9-35.2-45.7-39.8-42.6c-6.8,4.4,23.3,46.5,26.4,51.5c3.2,4.8,38,65.1,41.3,80.9
		c3.6,16,68.6,125.3,82.5,159.3C2234.3,1504.3,2278.8,1530.8,2297.5,1561.8 M2581.3,1667.5c2.2-2.6-4.1-10.7-7.4-16.9
		c-3.7-6.1-25.9-30.7-30-37.6c-3.6-6.5-32.3-47.3-42.4-60.7c-18-23-1.5-31.4-11-45.7c-3.8-6.2-26.8-34-53.6-61.4
		c-13.8-13.7-29.1-27-42.2-38.7c-21.1-18.8-37.1-32.9-39.8-30.6c-3.7,3.7,8.8,18.7,14.1,25.6c5.4,6.6,13.8,18.7,25,32
		c18.1,21.6,1.3,37.9,18.6,55.1c2.8,2.8,50.6,56.3,62.3,66.2c17.4,15.6,79.6,89.4,84,93.5
		C2566.4,1655.4,2579.2,1670.2,2581.3,1667.5 M1596.3,1317.1c3.5-7.5,14.4-30.5,13.8-39.7c0-1.6-4.1-4.5-7.5-1.1
		c-16,15.8-48.5,72.1-60.9,78.4c-27.8,13.5-40,46.1-48.3,59.1c-5.9,9.5-13.6,25-26.8,44.4c-11.6,16.8-24.9,41.8-29.8,50.5
		c-4.8,9.1-6.6,17.4,2.4,17.4c9,0,2,14.7-9,30.8c-6.2,9.4-21.7,54.6-26.2,66.8c-5.9,15.1-5,34.4-7.1,40.9
		c-2.1,6-31.6,68.8-39.2,82.7c-4.8,8.8-3.4,12.3-5.3,17.1c-2.7,6,0.7,7.8,5.3,3.4c5.6-5.6,37.1-53.5,46.8-59.2
		c9.4-5.9,18.1-14.7,19.5-35.3c1.4-20.6,14.8-26.2,24.8-38.2c10.4-11.9,24.1-27.9,31.4-44.7c6.9-17.3,15.8-4.2,31.8-29.9
		c16-26,51.9-89.9,60.1-102.3c7.9-12.4,2.1-30.2,1.1-45c-0.4-7.8,0.7-27,5.3-47.3C1583.1,1347.6,1591.5,1329.1,1596.3,1317.1
		 M1733.9,828.2c13.3,0,32.6-24.2,43.2-45.2c10.9-22.8,16.3-35.6,29.9-64.8c0.5-1.5-0.8-1.5-2.2-1.5c-15.4,0-32.4,15.8-43.3,28.5
		c-12.8,15.8-33.9,45.5-37,66.8C1722.2,823.5,1727.2,828.2,1733.9,828.2 M2076.2,848.7c15.1,7.7,33.9-25.6,50.2-56
		c16.2-30.6,29.1-68.5,15.4-73.2c-15.4-6.2-35.1,23.6-51.4,54C2074.3,804,2062.1,841.9,2076.2,848.7 M1491.5,828.2
		c13.6,0,32.5-24.2,43.5-45.2c10.7-22.8,16.4-35.6,29.6-64.8c0.7-1.5-0.7-1.5-1.9-1.5c-15.6,0-32.5,15.8-43.3,28.5
		c-12.8,15.8-34.1,45.5-37.3,66.8C1479.9,823.5,1485.3,828.2,1491.5,828.2 M1342.9,552.9c105.2,4.9,167.1,56.5,167.1,111.9
		c-0.1,98.9-157,115.8-157,115.8c-27.3,137.1-136,189.3-211.2,188.6c-101-0.8-99.5-82.6-96.1-93.1c4.3-12.2,10.5-23.2,23.2-23.2
		c12.6,0,23.1,10.3,23.1,23.2c0,7.8-3.8,15.1-10.5,19c-13.3,8.2-10.7,18.5-10.7,18.5c0,43.5,56.2,46.9,71,46.9
		c150.4,0,133.1-247.8,265.8-332.1c6-4.1,10.7,0,7,4.2c-41.4,51.9-57,135.6-57,135.6c64,0,106.3-60.9,106.3-103.3
		c0-72.6-65.4-102.8-121-102.8c-154.9,0-222.2,108.2-222.2,167.2c0,59.1,37.3,80.4,64.2,80.4c37.6,0,49.3-25.1,44.7-37.4
		c-7.5-19.3,2.8-35.4,14.5-35.4c4.6,0,20-0.8,20,26.4c0,26.2-37.1,52.6-78.2,52.6c-40.5,0-99.8-21.9-99.8-86.7
		C1086.1,597.9,1247.6,548,1342.9,552.9 M1603.8,713.3c-16.8,37.9-29.1,65.1-44.6,100.9c-1.3,3.4-2.5,9.3,0.7,11.5
		c2.8,1.3,6.1,1.3,8,0c19.8-9.5,37.3-32.6,50.9-58.9l24.4-53.9h34.4l-9.4,20.4c-0.8,1.1-0.8,1.8,0,1.1c10.7-8.1,22-20.3,35.8-27.8
		c5.4-2.5,18.2-2.5,16.9,6.4c-0.7,7.9-6.7,13.9-10.1,21.5c-2,4.8-4.1,10.8-3.4,14.1c1.4,3.6,5.4,5.6,10.7,1.5
		c5.4-3.4,9.5-6.1,14.5-10.2c8.5-8.3,19.4-16.1,31.6-22.6c24.4-11.3,57.6-18.6,82-3.2c-17,38-29.8,66.3-46,102.1
		c-3,6.1-0.5,8.1,1.4,9.5c2.1,1.3,6,2,11.5-1c13.4-5.6,37-32,46.5-52.5c9-19.1,17.1-37.9,26.6-59.4h35.4l-9.9,20.8l1.4,0.7
		c9.4-8.7,34.1-28.4,52.3-24.2c10.1,2.1,15,14.1,14.2,23.1c11.5-8.4,23.3-18.5,40.4-22.7c24.4-6,34,11,26.4,27.3
		c-9.5,22.4-28.4,66.2-39.2,88.7c-1.3,2.3-1.3,7.3,0,8.4c2.7,2.2,7.6,0,9.6-1.1c12.2-10.4,18.8-17.1,28.3-30.5
		c2.6-23.7,15.4-45.5,33.2-63.7c18.8-20.9,48.6-37.2,77.2-27.6c10,3.3,16.8,13.5,19.5,23.6c1.3,5.4,2.6,8.1,2.6,14.2
		c15,11,34.6-6.9,42.6-20.3c2.2-5.5,4.9-11.5,6.2-15.7c8.5,0.7,25.3,0,35.3,0l-44.2,100.9c-2.8,5.9-3.5,9.3-3.5,13.9
		c0,3.7,4.1,4.4,8.3,3.7c12.2-2.2,32-26.1,42-46.1c11.2-25.1,22.2-46,33.2-71h35.7c-14.2,33.7-30.4,69.7-42,96
		c-2.7,5.4-5.9,10.8-4.2,18.3c1.4,3.5,6.1,2.8,9.1,1.5c15.4-9,42.1-38.6,51.3-56.9c9.6-21.7,16.8-37.9,26.8-58.9h36.7l-8.8,21
		c13.7-10.8,28.4-22.5,46-25.3c8.1-1.1,18.2-0.7,22.9,7.7c5.5,9.4,2.2,19.4-1.9,28.5c-10.1,23-21.8,48-31.9,70.2
		c-1.9,5.5-2.4,10.6,1.2,12.8c5.6,3.5,31.2-12.2,44.3-40.6c11.3-25,19-39.8,29-64.1h-18.8l5.3-11h19l27.1-58.8h36.5l-26.3,58.8h27.5
		l-5.2,11h-27.1c-15.6,33-28.6,60.8-42.2,91.9c-5.3,10.6-10.7,28.5-7.9,39.3c2.1,6,9.5,7.6,16.3,5.3c20.8-7.2,35.1-25,47.2-43.9
		c0.7-2.1,11.7-0.7,10.8,0.9c-14.4,28.3-45.4,56.9-75,56.1c-8.9,0-18.5-5.5-23.8-13c-2.5-3.9-4.2-7.2-5.5-11.9
		c-1.9-7.7-1.3-16.3,0-24.5c-16.1,12.3-31.6,27.1-51.9,31.2c-8.9,1.3-20.3-2-22.3-11.5c-1.3-7.4-0.7-15.7,2.1-22.4
		c12.8-27.7,24.2-52.7,36.4-82c1-1.3,0-6.1-1.4-6.8c-2-1.9-8-1.9-13.4,2.2c-25,18.8-37.8,43.3-48.5,68.3
		c-7.7,16.8-15.9,33.7-23.9,50.2H2311c4.2-10.1,10.2-23.7,14.9-34.6c0-0.7-0.7-0.7-0.7,0c-14.8,14.7-33.9,31.6-52.6,36.6
		c-7.6,2-15.1-0.5-19-7.7c-4.3-6.7-5.5-16.7-1.9-25.7c0-0.4-0.3-0.4-1.1,0c-13.4,13.7-26.4,25.7-44.4,32c-20.5,6.2-38.9-8.1-26-37.9
		c3.5-8,13.7-30.5,24.9-57.4c-9.3,3.8-20.7,3.8-26.8,2c-0.8,0-0.8,0-0.8,0.7c-7.9,37.8-30.3,72.2-64.9,88.6
		c-16.9,8.2-36,10.3-52.8-1.2c-8.1-5.4-12.9-18.5-13.6-29.9c-17.4,17.6-37.3,39.9-64.2,36c-4.1-0.9-7.4-4.5-9.5-8.2
		c-6.1-10.2-2.5-21.1,1.3-29.9c12.9-27,23.6-52.2,36.5-82.5c2.1-4.3-3.7-7.3-7.9-5.4c-12.8,6.1-20.7,12.3-27.8,23.2
		c-3.8,5.9-7.7,12.7-10.7,19.2c-11.9,26-24.4,52.9-35.3,79.1H1892c16.4-36.9,31.9-72.9,48.1-109.3c1.5-3.4,0.7-8.2-1.3-9.3
		c-3.2-1.8-9,1.1-12.7,3.3c-8.8,6-16.5,14-22.3,24.4c-6.1,10.1-11.7,20.2-16,31.1l-27.4,59.8h-35.8c3.5-7.9,10.2-23.7,14.2-31.6
		c0-0.7-0.7-1.2-0.7-0.7c-19.6,16.2-44.7,37.2-63,33.7c-6.1-0.7-11.4-6-12.8-11.5c-1.3-6.9-0.8-13,0.7-18.8c0-0.8-0.7-0.8-1.4,0
		c-15.7,14.9-29.7,27.2-49.4,31.9c-11.3,2.5-21.9-4.7-25.5-13c-5-9.3-6.2-24.3,1.9-41.3c4.8-10.8,10.1-22.2,16.8-31.7
		c-3.9,2.1-11.9,2.7-17.4,2.1c-4.6-0.7-9.5-4.3-11.9-7.8c-2.8-3.1-3.5-9.2-3.5-13.3c0.7-0.8-1.4-0.8-2.8,0
		c-10.7,8.7-15.6,19-20.9,30.4l-31.1,70.4h-36.6l13.5-29.9c0.7-0.5,0-1.2-0.7-0.5c-19.1,16.9-41.9,36-60.3,32.4
		c-5.3-0.9-10.8-6.1-12.2-11.4c-1.3-6.4-0.8-13.1,0-19.1h-1.3c-14.9,14.9-29.1,27-48.5,31.1c-11.1,3.5-21-3.2-25.3-12.6
		c-5.4-13.8-3.4-27.8,1.4-40.9c14-36.7,40-62.9,75-82.7C1544.8,704.5,1579.5,700.7,1603.8,713.3 M817.1,1280.1
		c0,154.8,41.1,329.2,114.4,472.3c132.5-123.6,480-515.8,519.9-561.4c60.6-69.4,86.8-25.2,119.3-64c17.4-21.3,27.6-29.4,35.3-33.6
		c12.5-7.4,26.7-25.2,33.9-30.5c7.1-5.4,23.2-26.7,35.7-37.5c12.6-10.6,37.2-26.7,62.3-48c25-21.5,67.5-71.2,113.8-71.2
		c55.1,0,78.1,37.4,83,41.9c3.9,4.3,37.9,34.3,43.4,40c6,6.8,42.4,35.5,62.1,35.5c19.5,0,34,21.4,44.5,32
		c23.3,21.3,119.7,122.6,151.4,144.1c14.1,9.7,27.5,8,38,16.2c10.9,8,16.2,13.2,22.3,15c5.9,1.6,26.6-3.6,50.7,26.5
		c11.2,7.7,14.1,9,14.1,9s32.8,29.7,44.5,50.6c10.6,18.1,254.8,342.5,342.3,458.5c81.1-147,127.4-316,127.4-495.7
		c0-568.7-461-1029.2-1029.4-1029.2C1277.7,251,817.1,711.7,817.1,1280.1"/>
	<path id="path6" class="st0" d="M2688.3,1913v11.5h22.2v60.9h14.1v-60.9h22.1V1913H2688.3z M2821.8,1913l-19.6,51.4L2782,1913
		h-20.3v72.4h13.1v-56.7h0.3l21.9,56.7h9.7l21.5-56.7h0.6v56.7h13V1913H2821.8z"/>
</g>
</svg>
