<?xml version="1.0" encoding="utf-8"?>
<!-- Generator: Adobe Illustrator 28.1.0, SVG Export Plug-In . SVG Version: 6.00 Build 0)  -->
<svg version="1.1" id="Laag_1" xmlns="http://www.w3.org/2000/svg" xmlns:xlink="http://www.w3.org/1999/xlink" x="0px" y="0px"
	 viewBox="0 0 3686 2027" style="enable-background:new 0 0 3686 2027;" xml:space="preserve">
<style type="text/css">
	.st0{fill:#FFFFFF;}
</style>
<g>
	<path id="path5" class="st0" d="M1842.6,0c-47.4,10.1-464.9,64.8-516.9,90.8c-12,24-37,98.8-44.9,110.6
		c-33.6,7.2-169.5,33.1-178.1,38c-4.8,14.4-36,75.8-43.2,83c-28.8,7.2-163,32.1-179.8,44.1c-9.6,57.5-46.1,633.2,193.6,1009.6
		s659,626.9,769.3,650.9h0.9c110.3-24,528.7-274.5,768.5-650.9c239.7-376.4,204.1-952.1,194.5-1009.6
		c-16.8-12-151.1-36.9-179.8-44.1c-7.2-7.2-38.4-68.6-43.2-83c-8.5-5-144.5-30.8-178.1-38c-7.9-11.8-32.9-86.7-44.9-110.6
		C2308.6,64.9,1890.7,10.3,1842.6,0z M1842.6,146.9c41.1,8.8,398.3,56.5,442.6,78.7c10.2,20.5,31.3,84.1,38,94.2
		c28.7,6.1,145.7,27.8,153,32c4.1,12.3,30.1,65.6,36.3,71.7c24.6,6.1,139.5,26.9,153.9,37.2c8.2,49.2,38.9,541-166,862.7
		c-204.9,321.7-562.7,536.2-657,556.7h-0.9c-94.3-20.5-452-235-657-556.7c-204.9-321.7-174.2-813.5-166-862.7
		c14.4-10.3,129.3-31,153.9-37.2c6.2-6.1,32.2-59.5,36.3-71.7c7.3-4.2,123.5-25.8,152.1-32c6.8-10.1,28.7-73.7,38.9-94.2
		C1445.3,203.4,1802.1,155.6,1842.6,146.9L1842.6,146.9z"/>
	<path id="path9" class="st0" d="M1908.3,304.3c-13.5,1.3-15.5,10.8-15.6,14.7c-2.8,460.4-1.5,948.9-5.2,1422c3,15,26.9-8,40.6-15.6
		c174.7-96,719.4-623.6,406.3-812.5c239.8-156.8,197-306.4,90.8-388.1c-219.7-169-470.4-211-499.6-218.7
		C1918.3,304.1,1912.8,303.8,1908.3,304.3L1908.3,304.3z M2054.4,493.6c3.4-1.9,144.3,50.4,221.3,102.9c88.3,60.2,58.4,118,6.9,153
		c-28,19.1-201,143.4-229.9,150.4C2052.1,875.9,2051.9,605.4,2054.4,493.6L2054.4,493.6z M2183.2,1020c19.3,0.6,37.6,6.8,51,20.7
		c11.9,11.4,64.6,68.2-47.5,230.8c-41.8,73.7-129.4,166.2-139.2,175.5c-1.2,0.3-1.7-1.5-2.6-0.9c0.9-52.9-0.5-308.8,2.6-380.3
		C2053.7,1062.6,2125.3,1018.2,2183.2,1020L2183.2,1020z"/>
	<path id="path15" class="st0" d="M1312.9,470.1c-14.4,6.1-136.6,84-149,96.3c-3.4,108.5,25.7,401.4,132.9,630
		c13.6,28.9,28.3,56,44.2,80.5c30.6,52.8,32.3,48.6,67.9-1.9c24.6-33.3,60.2-82.8,69.1-92.9c12.3,41,91.7,296.5,203.4,450.9
		c49.5,68.5,125.6,133.2,125.2,106.6c-3-260.9-10.5-1390.4-2.3-1436.4c-32.9-0.8-141,13.3-162.4,24.4
		c-1.8,41.3,14.9,815.8,4.6,903.8c-75.7-184.4-101.5-671.2-86.6-872c-41,8.2-140.9,48.3-155.2,62.6c-18.4,36.9,6.7,441.3,32.9,577
		c-8.9,14.1-34.7,52.3-38.8,58.4C1347,964.2,1297.5,675.9,1312.9,470.1z"/>
</g>
</svg>
