<?xml version="1.0" encoding="utf-8"?>
<!-- Generator: Adobe Illustrator 28.1.0, SVG Export Plug-In . SVG Version: 6.00 Build 0)  -->
<svg version="1.1" id="Laag_1" xmlns="http://www.w3.org/2000/svg" xmlns:xlink="http://www.w3.org/1999/xlink" x="0px" y="0px"
	 viewBox="0 0 3686 2027" style="enable-background:new 0 0 3686 2027;" xml:space="preserve">
<style type="text/css">
	.st0{fill:#FFFFFF;}
</style>
<path class="st0" d="M3146.6,917.1c-60.5,14-220.3,21.7-220.3,21.7l-19.6,63.1c0,0,79.1-6.7,137-1c0,0,18.6-1.6,20.7,20.7
	c1,22.8-1.6,46.5-1.6,46.5s-1.6,14-20.7,17.6c-22.2,3.6-172.2,10.3-172.2,10.3l-24.3,81.7c0,0-8.8,18.6,11.4,13.4
	c18.6-5.2,175.8-35.2,196.5-31c21.7,5.2,46.5,35.2,39.3,62c-8.3,32.6-165.5,132.9-260.6,126.2c0,0-50.2,3.1-92-64.6
	c-40.3-64.6,14-186.1,14-186.1s-24.3-56.9-6.2-77.6c0,0,10.3-8.8,41.4-11.4l38.8-79.6c0,0-44,2.6-69.8-29.5
	c-23.8-31-25.9-44.5-7.2-52.7c19.6-10.3,201.7-42.9,326.8-38.8c0,0,44-5.2,82.7,70.8c0,0,17.6,31-13.4,38.3 M2675,1223.2
	c-15.5,37.7-58.4,77.6-110.1,53.3c-52.7-24.8-136-194.4-136-194.4s-31-63.1-37.2-61c0,0-6.7-12.4-10.3,56.9
	c-5.2,68.8,1,202.7-27.4,223.9c-25.9,20.7-56.9,11.9-74.5-12.4c-14.5-24.3-20.7-82.7-12.4-184.6c9.3-101.9,32.6-210.4,62-244.1
	c31-34.1,55.8-9.3,65.2,0c0,0,39.8,36.2,107,143.2l11.4,19.6c0,0,61,101.9,67.2,101.3c0,0,5.2,5.2,9.3,1c6.2-1.6,4.1-34.6,4.1-34.6
	S2582,981.2,2525.1,795c0,0-8.3-23.8-2.6-46.5c5.2-20.7,27.4-10.3,27.4-10.3s85.8,41.4,127.7,181c41.4,139.6,13.4,266.3-2.1,304
	 M2254.1,864.9c-8.3,14.5-11.9,34.6-47.6,40.3c0,0-346.4,24.3-363.5,48.6c0,0-11.4,14.5,7.2,18.1c19.6,4.1,98.2,14.5,135.5,16.5
	c40.3,0,175.8,1,225.4,62c0,0,28.4,29,27.4,94.6c-1,67.2-12.9,91-39.3,115.3c-27.4,22.8-262.2,128.2-413.7-33.1
	c0,0-69.3-77.6,24.3-136.5c0,0,67.2-41.4,239.4,6.7c0,0,51.7,18.6,49.6,37.7c-3.1,20.7-42.9,41.4-100.8,40.3
	c-55.8-1.6-97.2-28.4-88.9-23.8c7.8,2.6-60.5-33.1-81.7-8.8c-20.7,22.8-15.5,36.2,5.2,50.2c51.7,30,254.9,19.1,315.4-48.6
	c0,0,24.3-27.4-12.4-49.6c-36.2-20.7-141.7-33.6-182.5-35.2c-38.8-2.1-184.1,0-205.8-37.7c0,0-20.7-26.9,2.1-100.3
	c23.8-77.6,192.9-107.6,266.3-113.8c0,0,201.7-8.3,239.4,33.1c0,0,5.2,9.3-1,23.3 M1682.3,1319.4c-24.3,18.1-76,10.3-91-10.3
	c-14.5-18.1-19.6-89.5-17.1-201.7c3.6-114.8,5.2-255.4,31-278.2c25.9-22.2,41.4-2.6,51.7,12.4c10.3,15.5,23.8,32.6,25.9,68.3
	c3.1,36.2,11.9,222.3,11.9,222.3s11.4,169.6-11.9,187.2 M1734,714.4c-71.4,24.3-120,16.5-161.3-1.6c-18.1,32.6-29,42.4-42.4,44.5
	c-20.7,2.1-38.8-31-41.4-41.4c-4.1-7.8-14-21.7-2.1-53.3c-40.3-36.2-43.4-84.8-36.2-117.4c9.3-38.3,77.6-182,284.4-199.1
	c0,0,101.3-7.2,118.9,46.5h3.1c0,0,98.2,0,96.2,87.9c0,87.9-108.6,197.5-219.2,235.3 M1826,464.1c-65.2,10.3-165.5,97.2-213.6,169.1
	c73.9,13.4,203.2,8.3,261.1-108.6C1873.6,524.6,1901,451.2,1826,464.1 M1540.1,521c-20.7,33.6-21.7,53.8-11.9,67.2
	c24.3-36.2,67.2-93.1,131.9-137.5C1610.4,455.8,1568.5,476.5,1540.1,521 M3301.7,1315.7c-47.6,116.9-87.9,235.3-111.2,412.6
	c0,0-5.2,34.6-33.6,23.3c-28.4-10.3-75-56.9-85.3-122.5c-10.3-85.8,27.9-230.6,106-397.1c-22.8-36.2-38.8-90-25.9-165.5
	c0,0,20.7-139.6,160.3-265.8c0,0,16.5-14,25.9-9.3c11.4,5.2,6.7,49.6-2.6,72.4c-8.3,21.7-70.3,129.3-70.3,129.3
	s-38.8,73.4-27.9,130.8c73.4-112.7,240.4-341.3,343.9-268.9c65.7,46.5,65.7,196.5,16.5,283.4c-38.8,68.8-148.4,211-294.7,177.9
	 M3517.9,964.6c-38.3,41.4-106.5,120-160.3,226.5c56.9-6.2,112.2-37.7,129.3-53.8c27.4-24.3,90.5-90,80.7-176.8
	C3567.5,960.5,3561.3,915,3517.9,964.6 M1201.4,1376.8c-183,55.8-355.7,30-449.9,5.2c-2.6,38.3-6.7,54.3-12.9,60.5
	c-7.2,8.3-67.2,42.4-100.3-6.2c-14.5-23.3-21.7-65.2-25.9-103.4c-212-96.2-310.2-237.9-313.3-243c-5.2-5.2-53.3-55.3-5.2-117.4
	c45-55.8,193.9-112.2,327.3-134.4c5.2-113.8,17.6-201.7,33.6-240.4c19.1-46.5,43.4-5.2,65.2,25.9c17.6,23.3,28.4,123.1,29.5,202.7
	c86.9-4.1,139.6,2.1,236.3,20.7c127.2,21.7,212,86.9,205.3,160.3c-6.2,72.4-72.4,102.4-98.2,104.4c-25.9,2.1-67.2-17.1-67.2-17.1
	c-29-13.4-2.6-25.9,31-40.3c37.2-18.1,29-36.2,29-36.2c-13.4-41.4-178.4-68.8-342.3-68.8c0,90.5,3.6,240.4,6.2,327.8
	c114.8,21.7,200.6,17.1,200.6,17.1s418.8-11.9,430.7-279.2C1393.7,747,962,490.5,644,409.8c-317.5-83.2-497.4-24.3-512.9-16.5
	c-17.1,8.3-1.6,11.4-1.6,11.4s17.1,2.6,48.1,12.9c31,10.3,6.2,25.9,6.2,25.9C129.5,462,69,451.2,57.1,426.4
	c-11.9-24.3,7.8-46.5,31-79.1c21.7-33.6,46.5-32.6,46.5-32.6c393-137,872.8,108.6,872.8,108.6c448.8,226.5,525.3,492.8,517.1,596.2
	c-7.2,101.9-46.5,274-323.2,357.8 M337.9,1007c-44.5,20.7-13.4,53.8-13.4,53.8c83.8,89.5,186.1,145.8,284.4,181
	c11.4-155.1,10.3-210.4,10.3-288.5C467.1,963.6,379.2,988.4,337.9,1007"/>
</svg>
