<?xml version="1.0" encoding="utf-8"?>
<!-- Generator: Adobe Illustrator 28.1.0, SVG Export Plug-In . SVG Version: 6.00 Build 0)  -->
<svg version="1.1" id="Laag_1" xmlns="http://www.w3.org/2000/svg" xmlns:xlink="http://www.w3.org/1999/xlink" x="0px" y="0px"
	 viewBox="0 0 3686 2027" style="enable-background:new 0 0 3686 2027;" xml:space="preserve">
<style type="text/css">
	.st0{fill:#FFFFFF;}
</style>
<g transform="translate(647.97 -300.06)">
	<path class="st0" d="M2155.7,1025.5v72.1h70.4c30.7,0,50.9,19.4,62.4,31.9c9.2,10.3,212,240.2,216.8,246.2c4.9,6.1,4.9,6.1,4.9,10
		v113.9c0,5.2-0.5,10.4-1.6,15.6c-2.9,6.7-8.6,11.8-15.6,13.9c-6.7,0.8-13.4,1.3-20.1,1.3l-70.5-0.1v72.1h395.3v-72.1h-74.4
		c-6.7,0-13.3-0.4-19.9-1.3c-7-2.1-12.7-7.2-15.5-13.9c-1-5.1-1.6-10.3-1.6-15.6v-113.8c-0.4-3.7,0.5-7.5,2.6-10.6l219.3-250.2
		c20.1-22.4,30.6-27.3,57-27.3h72.8v-72.1h-325.8v71.9h49.2c7.6-0.5,14.1,5.3,14.6,12.9c0.2,3.3-0.8,6.6-2.8,9.2
		c-1,1.5-136.4,160.6-138.1,162.2c-1.7,1.5-2.8,1.2-4-0.5c-1.3-1.7-135-161.7-135-161.7c-9.4-11.6-2.1-22.1,9-22.1h47.9v-71.9
		L2155.7,1025.5z"/>
	<path class="st0" d="M1186.2,1025.5v72.1h63.1c45.6,0,48.7,25.4,48.7,47.5v337.4c0,20.2,1.2,47.9-27.9,47.9h-77.9v72h332.4v-72
		h-81.1c-32.4,0-33.8-14.8-34.2-46.3V1195l456.5,407.4H1982l-6.1-460.1c0.6-33.6,2.7-44.8,37.5-44.8h72.8v-72H1747v72h74.5
		c34.2,0,39.9,13.2,40.4,44.8l4.1,240.8l-396.3-357.6L1186.2,1025.5z"/>
	<path class="st0" d="M-310.7,989.2c-71.4,0-152.6,13.4-221.2,44.2c-64,28.6-116.1,74.5-116.1,150.7c-0.1,39.9,15.1,78.3,42.4,107.3
		c18.5,17.1,48.4,46.1,126.4,63.2c34.9,7.4,109.4,19.2,183.6,27.1c74.2,7.8,146.2,14.7,175.7,22.6c23.5,6,62.9,14.1,62.9,58.3
		c0,44.2-41.5,57.5-48.7,60.4c-7.2,2.9-57.1,25.7-146.6,25.7c-59.3-1.6-118.1-11.8-174.5-30c-33.4-12-68.4-27.6-101.1-67.5
		c-13.2-18.8-20.5-41-21-64H-630v227.1h90.1v-30.7c0-7.1,5.7-12.9,12.8-12.9c2.4,0,4.7,0.6,6.7,1.8c42.4,18.5,86.6,32.7,131.8,42.6
		c47.3,9.9,77.9,17,136.8,17c62.1,1.2,123.9-7.6,183.3-25.9c39.4-10.8,76.4-29,108.9-53.7c37.1-28.5,58.7-72.7,58.3-119.5
		c0.3-43.8-16.6-86-47.1-117.5c-17-16.5-36.6-29.9-58.1-39.7c-23.1-10.4-47.1-18.8-71.7-25c-46.7-11.4-151.7-25.7-201.9-30.7
		c-52.6-5.4-144-13-180.5-24.3c-11.1-3.5-33.6-14.1-33.6-40.3c0-18.6,10.3-34.4,30.7-47.2c32.4-20.3,97.7-32.9,165.8-32.9
		c65.9-0.8,131.3,12,192.1,37.5c16.3,7.1,31.7,16.3,45.7,27.3c22.8,19.5,38.7,46,45,75.3h72.8v-197.6h-81.1v22.9
		c0,7.4-7.4,17.1-22.1,9.1C-82,1030.8-184.7,989.7-310.7,989.2L-310.7,989.2z"/>
	<path class="st0" d="M665.2,989.2c-127.8,0-263.4,44.2-340.1,113.9c-59.1,53.8-92.7,130.1-92.5,210
		c-0.9,80.3,32.8,157.1,92.5,210.8c82.6,74.2,206.4,114,340.1,114c133.9,0,260.4-39.4,341-114c57.9-54.9,90.9-131,91.3-210.8
		c0.8-79.7-32.4-156.1-91.3-209.9C919.7,1024.9,806.5,989.2,665.2,989.2L665.2,989.2z M665.2,1073.6c69.9,0,137.2,25.1,182.5,69.8
		c43.9,43.2,66.8,104.2,66.8,169.5c0,68.4-20.9,123.9-66.8,169.6c-45.9,45.7-111.7,70.2-182.5,70.2c-70.3,0-137.5-25-182.8-70.2
		c-43.8-45.4-67.7-106.5-66.3-169.6c0-65,22.6-126.3,66.3-169.5C527.7,1098.5,595.3,1073.6,665.2,1073.6L665.2,1073.6z"/>
</g>
</svg>
