<?xml version="1.0" encoding="utf-8"?>
<!-- Generator: Adobe Illustrator 28.1.0, SVG Export Plug-In . SVG Version: 6.00 Build 0)  -->
<svg version="1.1" id="Laag_1" xmlns="http://www.w3.org/2000/svg" xmlns:xlink="http://www.w3.org/1999/xlink" x="0px" y="0px"
	 viewBox="0 0 3686 2027" style="enable-background:new 0 0 3686 2027;" xml:space="preserve">
<style type="text/css">
	.st0{fill-rule:evenodd;clip-rule:evenodd;fill:#FFFFFF;}
</style>
<g>
	<path id="_47408984" class="st0" d="M268.3,1294.8c41,5.4,82.4,8.9,123.2,13l11.8,49.8c-68.1-4.3-138-5.3-206.5-5.3
		c-65.2,0-131.7,0.7-196.8,5.3l9.4-49.7c34.3-4.4,68.6-7.3,103.1-12.8c3.1-60.1,3.7-247.1,3.7-332.1v-39c0-29-0.5-183.1-3.7-232.3
		C78.3,684.6,42.6,683.1,8,680l-7-48.4l244.1-0.9c107.1,0,200.3,8.5,251.4,29.4c94.2,39.3,105.2,105.3,105.2,134.2
		c0,171.3-168,249.5-314.2,269.8l6.1-53.4c88.6-22.1,153.2-71.5,153.2-180.9c0-54.8-27-98.5-71.4-120.6
		c-26.2-12.9-68-18.8-107.3-20.1c-2.9,44.7-3.6,163.2-3.6,237.7v41.5C264.5,1044.6,265.3,1241.1,268.3,1294.8z M972.9,1295.3
		c33.7,6,68.2,9.1,101.8,12.6l11.9,50.4c-69.5-6.6-143.4-5.9-212.6-5.9c-57.1,0-114.6,1.7-171.1,5.3l9.5-50.4
		c34-1.7,68.7-6.5,102.4-12.3c3.5-55.6,4.5-218,4.5-307v-58c0-29.8-1-186.5-4-237.3c-34.1-5.2-67.9-9-101.7-12.7l-11.8-50.7
		c69.6,7.5,145.2,6.3,214.4,6.3c56.3,0,114.8,0.1,171-6.4l-12.4,50.8c-34,3.6-68.1,9.3-102,13.7c-2.5,34.4-3.6,133.7-3.6,241.4v60.6
		C969.2,1112.4,970.3,1255.4,972.9,1295.3z M1681.4,1189.6c-52.4-62-97.2-118.8-122.8-149.1c-34.9,47.2-120.7,181.9-159.3,256.6
		c24.1,4.5,48.2,8.4,72.6,10.9l6.9,48.3h-16.4c-15.7,0-99.6-3.9-155.9-3.9c-42.9,0-84.8,2.2-127.8,5.7l16.7-50.1
		c21.8-3.1,45.7-5.4,66.1-13.2c41.9-28.2,210.6-251.8,255-308.7c-34.1-43.7-80-103.9-123.4-159.8c-44.5-56.9-85.9-109-108.1-133.1
		c-22.5-6.9-46-9.9-68.9-14.3l-7.1-50.7c54.1,9,113.9,7.3,167.5,7.3c61.6,0,123.6-2.3,185.1-4.9l-14.4,49.3
		c-24.1,2.6-48.2,5.6-72.1,10.3c27.1,43.5,98.8,149.4,130.2,191.4c33.4-45.3,100.2-141.2,129.3-191.8l-17.3-3.5
		c-14.6-2.6-29-4.9-43-7l-9.7-49.4c51.3,4.3,103.1,5.7,155,5.7c39.4,0,78.8-2.3,118.2-5.7l-4.7,48.3c-23.2,6-46.4,10.3-70,16.1l-8,8
		c-34.4,32.1-65.5,68.3-96.5,103.2c-45.4,51.4-91.9,105.6-113.1,130.7c108.9,149,215.5,300.5,327.2,446.9l-79.4,15.7
		C1815.5,1340,1744.6,1262.8,1681.4,1189.6L1681.4,1189.6z M2580,1296.3c-29.8-86.9-56.3-177.8-93.2-262.3
		c-43.4,0.9-163.5,6.4-207.2,11.3c-11.3,35.6-51.3,178.1-63.5,251c26.5,6.2,53.9,8.5,80.9,11.6l9.5,49.8
		c-58.3-3.5-117.4-5.3-175.5-5.3c-43.8,0-87.7,1.7-131.1,5.7l7-50.2c29.6-3,58.6-7,87.7-13c38.5-75.9,200.5-511.5,235.3-604.9
		c-24.2-4.8-48.3-7.3-72.5-10.2l-2-49.4c50.2,3.4,101.3,5.3,151.9,5.3c64.6,0,130.1-0.7,194.1-5.3l-7.2,49.4
		c-23.1,2.7-46.4,5.4-69.1,10.6c17.4,56.1,64.6,191.5,98.7,284.7c26.7,74,84.9,232.3,129.6,319.8c30,5.9,59.7,9.6,89.8,13.5l7.3,51
		c-59.1-9.9-130.8-7-189.5-7c-61.1,0-123.8,0.7-184.9,5.7l11.8-50.4C2518.9,1304.8,2549.4,1302.2,2580,1296.3L2580,1296.3z
		 M3025.9,692.6c-34.3-5-69.9-7.5-104.4-10.4l-6.9-48.9l237.8-1c92.3,0,221.7,1,291.9,28.8c56.1,22.2,93.4,63.7,93.4,125.3
		c0,66.5-69.7,146.6-142.6,191.4c69.4,117.3,201.9,301,290.9,395.2l-84.7,11.4c-70.6-32.5-287.6-278.5-350-353.8
		c-27.1,2-54.9,4.3-73.5,4.9v11.5c0,59.1,1.6,193.9,4.3,249c33.4,5.5,67.7,8.8,101.6,11.8l9.5,50.2c-61.6-5-125.2-5.7-186.8-5.7
		c-63.7,0-129.8,0-193.3,5.7l9.4-50.4c34.4-2.8,69.5-5.8,103-12.3c3-48.8,4.2-217.9,4.2-312.4v-59.9
		C3029.8,889.8,3028.6,734.8,3025.9,692.6L3025.9,692.6z M2387.4,738.3c-28.4,78.3-68.1,186.3-84.4,233.7l165.6,3
		C2448.1,913.9,2409.2,804,2387.4,738.3z M3278.2,958.6c39.5-14.5,102.6-56.2,102.6-144.6c0-49.9-43.9-120.8-198.8-124.9
		c-2.5,56.8-4.2,208.1-4.2,271.4v15.7C3209,975.3,3243.5,971.4,3278.2,958.6z"/>
</g>
</svg>
